<?xml version="1.0" standalone="no"?>
<!DOCTYPE svg PUBLIC "-//W3C//DTD SVG 20010904//EN"
 "http://www.w3.org/TR/2001/REC-SVG-20010904/DTD/svg10.dtd">
<svg version="1.0" xmlns="http://www.w3.org/2000/svg"
 width="2000.000000pt" height="2000.000000pt" viewBox="0 0 2000.000000 2000.000000"
 preserveAspectRatio="xMidYMid meet">

<g transform="translate(0.000000,2000.000000) scale(0.100000,-0.100000)"
fill="#000000" stroke="none">
<path d="M6922 16228 c-18 -11 -48 -22 -65 -23 -18 -1 -68 -18 -111 -38 -43
-21 -85 -37 -92 -37 -7 0 -14 -4 -16 -9 -1 -5 -28 -21 -58 -36 -30 -15 -80
-44 -110 -64 -30 -20 -61 -40 -69 -45 -8 -5 -4 5 8 22 18 26 117 98 217 159
10 6 -19 -4 -66 -23 -47 -18 -144 -50 -215 -70 -334 -93 -323 -88 -395 -163
-48 -49 -80 -95 -121 -176 -75 -144 -128 -281 -140 -358 -22 -136 23 -316 174
-697 99 -249 102 -257 102 -337 0 -69 -3 -86 -23 -112 l-23 -31 45 -20 c73
-31 146 -50 193 -50 42 0 45 2 63 43 33 76 34 105 2 180 -21 49 -37 73 -58 83
-43 23 -63 43 -106 108 -42 66 -76 162 -79 228 -2 35 6 59 37 116 21 39 44 72
51 72 6 0 40 -31 75 -69 48 -52 80 -76 130 -99 l66 -30 4 236 c4 276 8 294
104 381 101 92 169 105 464 87 188 -12 273 11 399 107 52 40 54 41 68 22 26
-34 72 -141 93 -217 23 -85 50 -254 50 -316 0 -49 16 -53 38 -10 15 32 1 300
-23 428 -29 153 -75 314 -107 378 -37 74 -96 139 -135 148 -16 4 -64 28 -108
54 -44 26 -102 59 -130 73 -60 30 -85 56 -94 96 l-6 30 -33 -21z"/>
<path d="M15406 15772 c18 -50 24 -90 24 -157 0 -112 -10 -129 -88 -151 -57
-17 -59 -19 -162 -133 l-31 -34 -87 7 c-48 4 -95 4 -105 0 -22 -8 -42 -46 -68
-129 -28 -92 -56 -120 -142 -145 -163 -47 -195 -68 -265 -173 -30 -45 -70 -89
-108 -117 l-60 -46 31 -20 c29 -19 30 -23 30 -89 0 -57 -6 -81 -28 -125 -16
-30 -42 -69 -58 -85 -59 -62 -30 -127 121 -276 59 -59 119 -115 133 -124 25
-16 28 -16 79 12 63 33 260 226 336 328 81 109 95 146 89 230 -6 89 6 112 81
164 32 21 64 46 71 55 7 9 16 54 20 101 7 85 16 104 49 105 30 0 92 43 140 95
41 45 52 64 52 90 0 44 17 81 47 101 39 25 53 73 53 181 0 54 -3 116 -7 138
-6 39 -7 38 -19 -34 -10 -57 -19 -82 -44 -110 -17 -20 -39 -54 -49 -76 -21
-45 -34 -53 -165 -96 -166 -55 -273 -126 -300 -202 -8 -23 -24 -75 -36 -114
-32 -113 -73 -149 -211 -187 -70 -20 -108 -59 -158 -166 -40 -86 -42 -118 -22
-324 12 -124 11 -156 -7 -156 -10 0 -47 306 -46 395 0 61 5 80 38 145 54 107
75 125 175 156 70 21 93 34 127 68 36 36 44 54 69 146 25 94 32 109 71 147 49
47 167 107 291 147 66 22 82 31 87 51 3 13 15 27 27 30 11 4 45 32 75 63 61
65 65 85 39 187 -16 59 -65 153 -96 181 -12 11 -11 -1 7 -54z"/>
<path d="M15147 15784 c-18 -35 -40 -45 -147 -70 l-75 -17 -90 32 c-50 18
-111 40 -137 48 l-47 16 -53 -36 c-32 -23 -76 -42 -111 -49 -50 -11 -68 -9
-158 11 l-101 23 -75 -46 c-101 -63 -147 -75 -205 -53 -24 9 -66 17 -94 17
-133 0 -323 -168 -324 -285 0 -51 11 -77 25 -65 10 9 12 7 8 -8 -4 -16 33 -44
204 -155 194 -128 211 -141 248 -198 l39 -62 11 60 c15 84 53 143 112 175 41
23 73 29 198 42 177 18 231 33 311 84 59 38 114 103 114 135 0 32 62 87 144
127 87 43 136 50 243 35 51 -7 54 -6 86 26 27 27 38 50 51 106 9 40 16 81 16
92 0 37 -18 22 -25 -19 -9 -52 -48 -100 -82 -100 -14 0 -38 8 -54 17 -24 14
-33 15 -47 5 -73 -53 -75 -53 -149 -49 -76 4 -72 6 -162 -56 -21 -14 -38 -16
-84 -11 -57 7 -59 6 -96 -30 l-37 -36 -79 29 c-44 15 -111 36 -149 46 l-69 19
29 24 c81 67 111 74 174 42 54 -27 90 -25 170 10 l68 30 69 -26 c93 -35 151
-30 232 19 34 22 72 37 90 37 35 0 48 28 33 70 l-9 25 -16 -31z"/>
<path d="M5835 14159 c-133 -108 -206 -174 -217 -199 -8 -18 -61 -59 -162
-125 -381 -248 -545 -390 -623 -540 -119 -232 -246 -653 -493 -1634 -205 -814
-187 -759 -352 -1093 -78 -158 -143 -286 -144 -285 -1 1 -142 677 -313 1502
-171 825 -321 1527 -333 1560 -107 299 -277 489 -508 564 -121 40 -233 53
-510 58 -373 8 -507 -9 -660 -84 -191 -93 -292 -274 -307 -548 -6 -110 -5
-115 351 -2270 195 -1188 360 -2191 366 -2228 23 -156 91 -289 204 -403 61
-61 163 -134 189 -134 5 0 1 10 -7 22 -23 33 -20 106 7 152 49 86 28 79 788
269 l696 174 12 -51 c7 -28 33 -93 58 -145 37 -77 59 -108 122 -171 132 -132
236 -171 656 -244 l190 -34 -1230 5 c-676 3 -1241 8 -1255 12 -14 3 -38 5 -53
3 l-28 -3 1 -457 1 -457 -225 -1725 c-124 -949 -228 -1740 -231 -1757 l-6 -33
70 0 69 0 9 43 c5 23 189 833 409 1800 l399 1757 317 0 c243 0 318 -3 318 -12
0 -19 -359 -2760 -365 -2786 -5 -21 -3 -22 60 -22 36 0 65 2 65 4 0 5 582
2559 621 2729 l21 87 829 0 c456 0 829 -2 829 -5 0 -2 34 -163 75 -358 l75
-354 -16 -112 c-17 -125 -15 -132 41 -151 31 -10 33 -14 52 -103 11 -51 134
-633 274 -1294 l254 -1203 67 0 c38 0 68 3 68 8 0 4 -7 63 -15 131 -8 69 -13
126 -12 127 1 1 61 -2 132 -7 72 -4 155 -8 186 -9 53 0 56 1 72 35 23 49 58
69 107 61 21 -3 112 -33 202 -65 255 -92 317 -105 488 -106 80 0 184 4 233 8
l87 8 0 -160 0 -161 183 0 183 0 25 375 c14 206 29 378 32 381 8 8 69 -10 257
-75 81 -28 177 -58 215 -66 164 -35 560 -1 730 62 47 18 50 21 68 78 13 42 17
83 15 137 -4 99 -21 119 -121 144 -153 37 -466 153 -615 228 -80 40 -103 67
-126 147 -9 31 -27 67 -41 80 -29 28 -33 59 -7 59 9 0 99 -10 200 -22 145 -17
185 -19 191 -9 6 10 144 822 212 1255 l11 69 62 -7 c85 -8 230 -45 441 -111
417 -130 574 -159 865 -159 169 0 228 4 335 23 179 31 417 82 620 131 211 52
257 51 460 -8 310 -91 620 -157 857 -183 l107 -12 6 -41 c6 -51 115 -1630 115
-1671 0 -28 -7 -33 -119 -88 -142 -69 -156 -84 -156 -177 0 -113 33 -136 213
-147 45 -3 85 -10 89 -16 3 -5 12 -91 19 -191 7 -99 13 -182 14 -183 0 -2 81
-3 180 -3 l180 0 0 224 0 225 49 50 c26 27 95 112 153 188 101 132 176 213
199 213 5 0 17 -17 26 -38 13 -30 17 -74 17 -227 1 -108 5 -193 11 -197 7 -6
63 0 73 7 1 1 7 51 12 111 5 60 19 141 29 179 22 79 69 190 77 182 3 -2 -6
-161 -20 -351 -15 -191 -26 -363 -26 -381 l0 -35 65 0 c59 0 65 2 70 23 2 12
106 625 230 1362 124 737 228 1348 231 1358 13 43 330 9 524 -58 58 -19 113
-38 123 -41 11 -4 17 -1 17 10 0 17 -85 769 -95 844 l-6 42 450 0 449 0 15
-62 c7 -35 150 -663 317 -1395 l304 -1333 63 0 63 0 -5 28 c-3 15 -84 630
-180 1367 -96 737 -177 1352 -180 1368 l-5 27 318 0 318 0 404 -1780 404
-1780 69 0 69 0 -6 38 c-4 20 -107 812 -231 1759 l-225 1721 0 414 0 415 -557
6 c-306 4 -820 7 -1143 7 -323 0 -635 3 -693 6 l-106 7 -6 46 c-3 25 -8 60
-11 77 l-4 32 207 6 c342 11 486 32 597 88 112 56 236 187 299 316 18 36 38
62 47 62 16 0 576 -136 1001 -243 286 -71 300 -78 359 -171 19 -30 38 -55 42
-56 4 0 30 23 57 51 103 104 168 232 195 379 9 47 192 1054 407 2239 l392
2155 -6 120 c-13 278 -110 450 -307 544 -118 56 -194 71 -424 83 -221 11 -432
1 -538 -26 -164 -43 -271 -141 -372 -341 -108 -214 -102 -190 -502 -2024 -206
-943 -377 -1723 -380 -1733 -4 -13 -18 12 -45 80 -61 150 -158 342 -260 513
-244 408 -360 789 -389 1279 -9 145 0 419 16 509 7 37 5 38 -75 18 -31 -8 -81
-19 -112 -26 l-55 -11 12 -92 c34 -247 48 -460 49 -742 0 -159 -3 -306 -8
-326 -5 -27 -15 -39 -40 -51 -116 -55 -712 -116 -1452 -148 -326 -14 -564 -30
-611 -40 -62 -15 -105 -12 -220 16 l-107 26 -73 -31 c-105 -44 -153 -40 -104
9 26 26 18 25 -30 -2 -32 -19 -41 -21 -52 -10 -11 11 -7 19 22 45 19 18 49 42
65 55 l30 23 -30 -15 c-16 -8 -52 -33 -79 -55 -26 -23 -52 -41 -57 -41 -24 0
-18 34 15 80 45 63 46 73 1 30 -26 -25 -38 -31 -46 -23 -9 9 -6 20 9 45 33 53
82 94 167 138 l80 42 90 -5 c50 -4 135 -18 190 -33 189 -50 201 -50 525 27
157 37 311 73 343 80 37 8 53 15 45 21 -7 4 -1007 8 -2223 8 l-2210 0 33 -20
c31 -19 33 -24 30 -68 -3 -45 -5 -48 -51 -70 -138 -66 -541 -68 -665 -4 -34
17 -37 23 -40 65 -3 38 1 48 17 57 30 16 26 27 -8 22 -16 -2 -32 1 -35 7 -10
16 -36 13 -36 -4 0 -19 -23 -19 -58 -1 -30 16 -222 22 -222 7 0 -7 -166 -31
-214 -31 -41 0 -86 263 -86 505 0 191 15 174 -155 175 -99 1 -114 3 -150 25
-23 14 -55 25 -76 25 -63 0 -74 25 -114 255 -35 205 -82 421 -177 810 -43 182
-84 358 -89 393 -18 124 -65 179 -304 357 -101 76 -163 115 -179 115 -21 0
-36 -16 -85 -89 l-60 -89 74 -333 c42 -183 74 -334 72 -335 -2 -2 -35 35 -73
82 l-69 86 -7 -223 c-3 -123 -10 -276 -14 -339 l-8 -115 -33 300 -33 299 25
54 c14 30 25 59 25 65 0 5 -28 45 -62 88 -52 65 -67 78 -83 72 -11 -4 -46 -6
-77 -6 l-57 1 -45 -104 c-25 -58 -46 -108 -46 -112 0 -4 23 -25 50 -45 28 -21
50 -45 50 -55 -2 -87 -39 -615 -44 -619 -3 -4 -6 -1 -6 6 0 6 -40 107 -89 224
-204 485 -427 1072 -550 1450 -13 37 -26 67 -29 67 -4 -1 -29 -19 -57 -41z
m-88 -6013 c3 -3 2 -50 -2 -106 -4 -56 -9 -99 -11 -97 -3 2 -18 53 -34 112
l-28 107 35 -5 c20 -4 38 -8 40 -11z m8578 -1633 c-6 -59 -95 -1289 -95 -1314
0 -8 -11 0 -25 16 l-25 30 -52 -55 c-29 -30 -133 -142 -232 -247 -98 -105
-218 -228 -267 -273 l-89 -81 0 850 0 851 23 0 c39 0 258 57 362 95 55 20 165
69 245 110 80 41 149 74 153 75 4 0 5 -26 2 -57z m-7849 -80 c-6 -21 -31 -225
-46 -373 -6 -58 -13 -253 -16 -435 l-5 -330 -31 -94 c-48 -148 -71 -196 -105
-225 l-32 -27 -6 33 c-5 34 -165 1432 -165 1448 0 5 71 11 158 13 86 1 179 4
205 5 42 2 48 0 43 -15z m1349 -1190 c-9 -23 -22 -44 -30 -47 -28 -10 -105
-129 -124 -190 -25 -81 -34 -176 -23 -257 l8 -67 -35 13 c-70 25 -242 105
-272 125 -33 24 -60 72 -79 143 -7 27 -26 61 -42 77 -15 16 -28 38 -28 50 0
19 4 22 28 17 63 -12 422 -51 427 -46 3 3 44 169 93 369 l87 363 3 -254 c2
-212 0 -261 -13 -296z"/>
<path d="M11647 13256 c-84 -18 -92 -30 -91 -129 2 -181 116 -333 292 -387
213 -66 434 32 522 232 30 69 42 145 29 185 -14 42 -47 60 -163 85 -117 26
-498 35 -589 14z"/>
<path d="M9082 12915 c-118 -18 -160 -39 -172 -84 -31 -117 63 -305 195 -389
168 -107 419 -70 551 81 69 79 113 211 100 300 -6 38 -12 46 -43 61 -90 43
-444 60 -631 31z"/>
<path d="M13987 12596 c-99 -37 -150 -118 -240 -381 -114 -333 -102 -443 68
-604 59 -56 208 -160 247 -173 5 -2 25 -46 43 -98 18 -52 37 -94 42 -93 4 0
116 24 248 52 132 27 286 58 343 67 56 9 102 20 102 24 0 4 -30 106 -66 226
-83 277 -158 545 -194 697 -16 65 -30 120 -32 122 -1 1 -48 25 -103 53 -204
102 -370 141 -458 108z"/>
<path d="M12296 6145 c-244 -121 -491 -230 -615 -272 -137 -46 -267 -20 -363
72 l-37 36 -63 -11 c-35 -5 -88 -10 -118 -10 -99 0 -159 -65 -160 -172 0 -45
3 -50 43 -79 97 -71 297 -154 430 -179 140 -26 200 -7 427 135 151 95 212 125
251 125 l32 0 -6 -50 c-7 -57 -54 -201 -103 -310 -36 -82 -34 -93 22 -104 29
-7 31 -5 63 68 57 129 121 214 259 345 135 127 167 172 197 274 28 99 18 248
-17 246 -7 0 -116 -52 -242 -114z"/>
</g>
</svg>
